<svg class="animated" id="freepik_stories-user-flow" xmlns="http://www.w3.org/2000/svg" viewBox="0 0 500 500" version="1.1" xmlns:xlink="http://www.w3.org/1999/xlink" xmlns:svgjs="http://svgjs.com/svgjs"><style>svg#freepik_stories-user-flow:not(.animated) .animable {opacity: 0;}svg#freepik_stories-user-flow.animated #freepik--Character--inject-143 {animation: 1s 1 forwards cubic-bezier(.36,-0.01,.5,1.38) slideLeft;animation-delay: 0s;}            @keyframes slideLeft {                0% {                    opacity: 0;                    transform: translateX(-30px);                }                100% {                    opacity: 1;                    transform: translateX(0);                }            }        </style><g id="freepik--background-complete--inject-143" class="animable" style="transform-origin: 250px 228.23px;"><rect y="382.4" width="500" height="0.25" style="fill: rgb(235, 235, 235); transform-origin: 250px 382.525px;" id="elm64tcz9wuyj" class="animable"></rect><rect x="416.78" y="398.49" width="33.12" height="0.25" style="fill: rgb(235, 235, 235); transform-origin: 433.34px 398.615px;" id="el3m6f8d99xz6" class="animable"></rect><rect x="322.53" y="401.21" width="8.69" height="0.25" style="fill: rgb(235, 235, 235); transform-origin: 326.875px 401.335px;" id="elbcggmb99q8t" class="animable"></rect><rect x="396.59" y="389.21" width="19.19" height="0.25" style="fill: rgb(235, 235, 235); transform-origin: 406.185px 389.335px;" id="el5785ykyazmk" class="animable"></rect><rect x="52.46" y="390.89" width="43.19" height="0.25" style="fill: rgb(235, 235, 235); transform-origin: 74.055px 391.015px;" id="elydebn15jth9" class="animable"></rect><rect x="104.56" y="390.89" width="6.33" height="0.25" style="fill: rgb(235, 235, 235); transform-origin: 107.725px 391.015px;" id="eluajpa1ajsn" class="animable"></rect><rect x="131.47" y="395.11" width="93.68" height="0.25" style="fill: rgb(235, 235, 235); transform-origin: 178.31px 395.235px;" id="el1m14unfp40e" class="animable"></rect><path d="M237,337.8H43.91a5.71,5.71,0,0,1-5.7-5.71V60.66A5.71,5.71,0,0,1,43.91,55H237a5.71,5.71,0,0,1,5.71,5.71V332.09A5.71,5.71,0,0,1,237,337.8ZM43.91,55.2a5.46,5.46,0,0,0-5.45,5.46V332.09a5.46,5.46,0,0,0,5.45,5.46H237a5.47,5.47,0,0,0,5.46-5.46V60.66A5.47,5.47,0,0,0,237,55.2Z" style="fill: rgb(235, 235, 235); transform-origin: 140.46px 196.4px;" id="elb9og3ogs1hl" class="animable"></path><path d="M453.31,337.8H260.21a5.72,5.72,0,0,1-5.71-5.71V60.66A5.72,5.72,0,0,1,260.21,55h193.1A5.71,5.71,0,0,1,459,60.66V332.09A5.71,5.71,0,0,1,453.31,337.8ZM260.21,55.2a5.47,5.47,0,0,0-5.46,5.46V332.09a5.47,5.47,0,0,0,5.46,5.46h193.1a5.47,5.47,0,0,0,5.46-5.46V60.66a5.47,5.47,0,0,0-5.46-5.46Z" style="fill: rgb(235, 235, 235); transform-origin: 356.75px 196.4px;" id="elyhbotdayabd" class="animable"></path><polygon points="390 317 390 284.12 334.88 284.12 334.88 212.07 325.21 212.07 325.21 253.36 298.86 253.36 298.86 241.94 251.41 241.94 251.41 202.4 242.62 202.4 242.62 154.08 235.59 154.08 235.59 201.52 218.9 201.52 218.9 271.81 187.27 271.81 187.27 201.52 130.16 201.52 130.16 271.81 102.04 271.81 102.04 366.71 403.41 366.71 403.41 325 390 317" style="fill: rgb(224, 224, 224); transform-origin: 252.725px 260.395px;" id="eljlsvq6v3uzb" class="animable"></polygon><polygon points="250.75 308 230.74 267 105.76 267 85.75 308 101 308 101 367 235 367 235 308 250.75 308" style="fill: rgb(240, 240, 240); transform-origin: 168.25px 317px;" id="el7ip0qopjjj5" class="animable"></polygon><rect x="223" y="313.38" width="92.41" height="53.62" style="fill: rgb(240, 240, 240); transform-origin: 269.205px 340.19px;" id="el8a1wkqp92r6" class="animable"></rect><rect x="237.85" y="317" width="75.91" height="9.58" style="fill: rgb(230, 230, 230); transform-origin: 275.805px 321.79px;" id="elrr4assllt0m" class="animable"></rect><rect x="237.85" y="331.09" width="75.91" height="9.58" style="fill: rgb(230, 230, 230); transform-origin: 275.805px 335.88px;" id="eltq4dnubcklc" class="animable"></rect><rect x="237.85" y="345.18" width="75.91" height="9.58" style="fill: rgb(230, 230, 230); transform-origin: 275.805px 349.97px;" id="el9qofnudaoo" class="animable"></rect><rect x="237.85" y="359.27" width="75.91" height="7.73" style="fill: rgb(230, 230, 230); transform-origin: 275.805px 363.135px;" id="el8kzo7027isc" class="animable"></rect><polygon points="213 308 97 308 83.76 267 63.75 308 79 308 79 367 129 367 213 316.33 213 308" style="fill: rgb(230, 230, 230); transform-origin: 138.375px 317px;" id="eljm0oebj1meh" class="animable"></polygon><rect x="416.38" y="133.27" width="6.76" height="233.73" style="fill: rgb(230, 230, 230); transform-origin: 419.76px 250.135px;" id="eli9bg2aow0os" class="animable"></rect><g id="eljal4stam7a"><circle cx="419.76" cy="150.23" r="25.84" style="fill: rgb(235, 235, 235); transform-origin: 419.76px 150.23px; transform: rotate(-80.78deg);" class="animable" id="elbn8ubouhh4i"></circle></g><path d="M411.05,157.34l1.2-2.53a11.64,11.64,0,0,0,7.46,2.62c3.92,0,5.6-1.52,5.6-3.49,0-5.52-13.71-2-13.71-10.44,0-3.49,2.72-6.46,8.66-6.46a13.37,13.37,0,0,1,7.28,2l-1.07,2.59a11.68,11.68,0,0,0-6.21-1.84c-3.84,0-5.49,1.61-5.49,3.58,0,5.53,13.7,2.07,13.7,10.38,0,3.46-2.78,6.43-8.76,6.43C416.26,160.18,412.86,159,411.05,157.34Z" style="fill: rgb(255, 255, 255); transform-origin: 419.76px 148.609px;" id="elg2o3jx4m6uw" class="animable"></path><g id="el9ftdgnm1s5n"><circle cx="419.76" cy="150.23" r="22.55" style="fill: none; stroke: rgb(255, 255, 255); stroke-miterlimit: 10; stroke-width: 2px; transform-origin: 419.76px 150.23px; transform: rotate(-80.78deg);" class="animable" id="elffpk7be8roh"></circle></g></g><g id="freepik--Shadow--inject-143" class="animable" style="transform-origin: 250px 416.24px;"><ellipse id="freepik--path--inject-143" cx="250" cy="416.24" rx="193.89" ry="11.32" style="fill: rgb(245, 245, 245); transform-origin: 250px 416.24px;" class="animable"></ellipse></g><g id="freepik--Street--inject-143" class="animable" style="transform-origin: 250px 373px;"><path d="M443,368.3V382H57V368.3a4.08,4.08,0,0,1,4-4.3H439A4.08,4.08,0,0,1,443,368.3Z" style="fill: rgb(46, 53, 58); transform-origin: 250px 373px;" id="el3hu9dku1tb" class="animable"></path><rect x="79" y="364" width="24" height="18" style="fill: #5E0000; transform-origin: 91px 373px;" id="el27bkm1ny98bh" class="animable"></rect><rect x="125" y="364" width="23" height="18" style="fill: #5E0000; transform-origin: 136.5px 373px;" id="elvgp4uqrlef" class="animable"></rect><rect x="170" y="364" width="24" height="18" style="fill: #5E0000; transform-origin: 182px 373px;" id="el7bybt1haqou" class="animable"></rect><rect x="216" y="364" width="23" height="18" style="fill: #5E0000; transform-origin: 227.5px 373px;" id="elc8gpdwfkmaq" class="animable"></rect><rect x="261" y="364" width="23" height="18" style="fill: #5E0000; transform-origin: 272.5px 373px;" id="el535rl3dfdwn" class="animable"></rect><rect x="306" y="364" width="24" height="18" style="fill: #5E0000; transform-origin: 318px 373px;" id="elotmxt2tf6nk" class="animable"></rect><rect x="352" y="364" width="23" height="18" style="fill: #5E0000; transform-origin: 363.5px 373px;" id="elmwit9qq3ysh" class="animable"></rect><rect x="397" y="364" width="24" height="18" style="fill: #5E0000; transform-origin: 409px 373px;" id="els80q470taer" class="animable"></rect><g id="ellwlaameafyn"><g style="opacity: 0.6; isolation: isolate; transform-origin: 250px 373px;" class="animable" id="el0q2rk99i8sso"><rect x="79" y="364" width="24" height="18" style="fill: rgb(255, 255, 255); transform-origin: 91px 373px;" id="eli4ma47jjn39" class="animable"></rect><rect x="125" y="364" width="23" height="18" style="fill: rgb(255, 255, 255); transform-origin: 136.5px 373px;" id="el2t98tl24n69" class="animable"></rect><rect x="170" y="364" width="24" height="18" style="fill: rgb(255, 255, 255); transform-origin: 182px 373px;" id="el5auchywqqu" class="animable"></rect><rect x="216" y="364" width="23" height="18" style="fill: rgb(255, 255, 255); transform-origin: 227.5px 373px;" id="elolaosdh4om" class="animable"></rect><rect x="261" y="364" width="23" height="18" style="fill: rgb(255, 255, 255); transform-origin: 272.5px 373px;" id="elx0wzqz3c4x" class="animable"></rect><rect x="306" y="364" width="24" height="18" style="fill: rgb(255, 255, 255); transform-origin: 318px 373px;" id="elsaqqfo819s" class="animable"></rect><rect x="352" y="364" width="23" height="18" style="fill: rgb(255, 255, 255); transform-origin: 363.5px 373px;" id="elbf45tuhlcxe" class="animable"></rect><rect x="397" y="364" width="24" height="18" style="fill: rgb(255, 255, 255); transform-origin: 409px 373px;" id="elwwhlafhmvl9" class="animable"></rect></g></g><g id="elikomvrlcq3n"><path d="M443,368.3V382H57V368.3a4.08,4.08,0,0,1,4-4.3H439A4.08,4.08,0,0,1,443,368.3Z" style="fill: rgb(255, 255, 255); opacity: 0.1; isolation: isolate; transform-origin: 250px 373px;" class="animable" id="elyql1xulg9i"></path></g></g><g id="freepik--Screen3--inject-143" class="animable" style="transform-origin: 116.5px 170.015px;"><path d="M162,97.64v145a2.54,2.54,0,0,1-2.6,2.39H72.67c-1.24,0-1.67-.95-1.67-2.19V97.44c0-1.07.29-2.44,1.36-2.44H94a1.76,1.76,0,0,1,1.4,1.19l.89,2a1.38,1.38,0,0,0,1.4.78h36.91c.62,0,1.17-.09,1.4-.66l.9-2.29a1.58,1.58,0,0,1,1.39-1H159.7A2.75,2.75,0,0,1,162,97.64Z" style="fill: #5E0000; transform-origin: 116.5px 170.015px;" id="el3yeb19nunt5" class="animable"></path><g id="elnitc29id20t"><path d="M162,97.64v145a2.54,2.54,0,0,1-2.6,2.39H72.67c-1.24,0-1.67-.95-1.67-2.19V97.44c0-1.07.29-2.44,1.36-2.44H94a1.76,1.76,0,0,1,1.4,1.19l.89,2a1.38,1.38,0,0,0,1.4.78h36.91c.62,0,1.17-.09,1.4-.66l.9-2.29a1.58,1.58,0,0,1,1.39-1H159.7A2.75,2.75,0,0,1,162,97.64Z" style="fill: rgb(255, 255, 255); opacity: 0.2; transform-origin: 116.5px 170.015px;" class="animable" id="elsk7vf5tyq28"></path></g><g id="elpgpzly8dzj"><rect x="74.51" y="110.99" width="84" height="104" style="fill: rgb(255, 255, 255); opacity: 0.4; isolation: isolate; transform-origin: 116.51px 162.99px;" class="animable" id="elem73mnj9xq"></rect></g><path d="M142,123.8h0a5.56,5.56,0,0,0-7.88,0h0a5.56,5.56,0,0,0,0,7.88l3.94,3.94,3.94-3.94A5.58,5.58,0,0,0,142,123.8Zm-2,5.84h0a2.7,2.7,0,0,1-3.81,0h0a2.69,2.69,0,0,1,0-3.8h0a2.7,2.7,0,0,1,3.81,0h0A2.69,2.69,0,0,1,140,129.64Z" style="fill: #5E0000; transform-origin: 138.056px 128.892px;" id="elwr4fjxhabk" class="animable"></path><path d="M89.92,194.23h0a5.58,5.58,0,0,0-7.88,0h0a5.58,5.58,0,0,0,0,7.88L86,206.05l3.94-3.94A5.56,5.56,0,0,0,89.92,194.23Zm-2,5.84h0a2.67,2.67,0,0,1-3.8,0h0a2.69,2.69,0,0,1,0-3.8h0a2.69,2.69,0,0,1,3.8,0h0A2.69,2.69,0,0,1,87.88,200.07Z" style="fill: #5E0000; transform-origin: 85.9892px 199.326px;" id="eltd9f5128k" class="animable"></path><path d="M146.44,111h-5.11l5.36,25.86-25.34,6.3L114.69,111h-5.12l6.92,33.37L89.66,151l-8.29-40H76.29l8.6,41.24-10.38,2.6V160L86,157.13l5.19,25.28-16.64,4.16v5.16l17.66-4.42L97.82,215h5.11l-6-28.88,7.12-1.77a1.75,1.75,0,0,1,1.41.22,1.81,1.81,0,0,1,.82,1.16l6.4,29.27h5.11l-6.62-30.33a6.84,6.84,0,0,0-8.33-5.18l-6.93,1.73-5.24-25.29,26.83-6.66,2.35,11.34a7.22,7.22,0,0,0,6.3,5.73l27.27,3,5.08,24.5v-29l-31.8-3.52a2.25,2.25,0,0,1-1.95-1.78l-2.4-11.54,36.15-9v-5.16l-7,1.73Z" style="fill: #5E0000; transform-origin: 116.505px 163px;" id="elmcbxn7dpdo" class="animable"></path><path d="M135.05,235.16H98a6.43,6.43,0,0,1-6.43-6.42h0A6.43,6.43,0,0,1,98,222.31h37.07a6.43,6.43,0,0,1,6.42,6.43h0A6.43,6.43,0,0,1,135.05,235.16Z" style="fill: #5E0000; transform-origin: 116.53px 228.735px;" id="elyjygvhbmx1h" class="animable"></path><path d="M99.19,229.08a3.49,3.49,0,1,1,3.5,3.36A3.34,3.34,0,0,1,99.19,229.08Zm6,0a2.55,2.55,0,1,0-2.54,2.53A2.46,2.46,0,0,0,105.23,229.08Z" style="fill: rgb(255, 255, 255); transform-origin: 102.678px 228.952px;" id="el19sktc76mev" class="animable"></path><path d="M112,232.37l-1.41-2-.41,0h-1.63v2h-.94V225.8h2.57c1.7,0,2.74.86,2.74,2.29a2.08,2.08,0,0,1-1.45,2.07l1.56,2.21Zm0-4.28c0-.94-.63-1.48-1.83-1.48h-1.6v3h1.6C111.34,229.57,112,229,112,228.09Z" style="fill: rgb(255, 255, 255); transform-origin: 110.32px 229.085px;" id="ellvg0plworr" class="animable"></path><path d="M114.42,225.8h2.77a3.29,3.29,0,1,1,0,6.57h-2.77Zm2.71,5.75a2.48,2.48,0,1,0,0-4.94h-1.77v4.94Z" style="fill: rgb(255, 255, 255); transform-origin: 117.541px 229.085px;" id="eliewv7m6qik" class="animable"></path><path d="M126.93,231.55v.82h-4.76V225.8h4.63v.81h-3.7v2h3.3v.8h-3.3v2.12Z" style="fill: rgb(255, 255, 255); transform-origin: 124.55px 229.085px;" id="eln4p44ik47no" class="animable"></path><path d="M132.84,232.37l-1.42-2-.41,0h-1.62v2h-.94V225.8H131c1.71,0,2.74.86,2.74,2.29a2.07,2.07,0,0,1-1.44,2.07l1.55,2.21Zm0-4.28c0-.94-.63-1.48-1.83-1.48h-1.59v3H131C132.18,229.57,132.81,229,132.81,228.09Z" style="fill: rgb(255, 255, 255); transform-origin: 131.15px 229.085px;" id="elo6ftuumajsb" class="animable"></path><g id="eltnrgr317n1"><path d="M162,157.65v84.71a2.65,2.65,0,0,1-2.64,2.64H143.67V164.15a6.5,6.5,0,0,1,6.5-6.5Z" style="opacity: 0.2; isolation: isolate; transform-origin: 152.835px 201.325px;" class="animable" id="el7agodh63y3n"></path></g></g><g id="freepik--Screen2--inject-143" class="animable" style="transform-origin: 196.5px 249px;"><path d="M242,176.64v145a2.55,2.55,0,0,1-2.61,2.39H152.66c-1.24,0-1.66-.95-1.66-2.19V176.44c0-1.07.27-2.44,1.35-2.44H174a1.76,1.76,0,0,1,1.4,1.19l.89,2a1.38,1.38,0,0,0,1.4.78h36.91c.61,0,1.17-.09,1.4-.66l.9-2.29a1.58,1.58,0,0,1,1.39-1.05h21.37A2.77,2.77,0,0,1,242,176.64Z" style="fill: #5E0000; transform-origin: 196.5px 249px;" id="elqfz531jiknj" class="animable"></path><g id="el2ov435efq4f"><path d="M242,176.64v145a2.55,2.55,0,0,1-2.61,2.39H152.66c-1.24,0-1.66-.95-1.66-2.19V176.44c0-1.07.27-2.44,1.35-2.44H174a1.76,1.76,0,0,1,1.4,1.19l.89,2a1.38,1.38,0,0,0,1.4.78h36.91c.61,0,1.17-.09,1.4-.66l.9-2.29a1.58,1.58,0,0,1,1.39-1.05h21.37A2.77,2.77,0,0,1,242,176.64Z" style="fill: rgb(255, 255, 255); opacity: 0.2; transform-origin: 196.5px 249px;" class="animable" id="elw39hthyh2o"></path></g><rect x="153.82" y="189.9" width="84.67" height="25.85" style="fill: #5E0000; transform-origin: 196.155px 202.825px;" id="elficwip79156" class="animable"></rect><g id="el4grantvi3ds"><rect x="153.82" y="217.75" width="84.67" height="98.58" style="fill: rgb(255, 255, 255); opacity: 0.4; isolation: isolate; transform-origin: 196.155px 267.04px;" class="animable" id="elr85348sexxp"></rect></g><g id="elf1td0ac7h8g"><g style="opacity: 0.4; isolation: isolate; transform-origin: 171.35px 198.001px;" class="animable" id="elarvan3rn5n"><path d="M162.57,196.41V198h2.25v.55h-2.25v1.82h-.64v-4.49h3.16v.56Z" style="fill: rgb(255, 255, 255); transform-origin: 163.51px 198.125px;" id="elw6jqsnb5avs" class="animable"></path><path d="M169,200.34,168,199h-1.39v1.37H166v-4.49h1.75c1.16,0,1.87.59,1.87,1.56a1.41,1.41,0,0,1-1,1.42l1.06,1.51Zm0-2.93c0-.64-.43-1-1.25-1h-1.09v2h1.09C168.55,198.43,169,198.05,169,197.41Z" style="fill: rgb(255, 255, 255); transform-origin: 167.84px 198.125px;" id="el9osum0qcyg" class="animable"></path><path d="M170.29,198.09a2.39,2.39,0,1,1,2.39,2.3A2.28,2.28,0,0,1,170.29,198.09Zm4.13,0a1.75,1.75,0,1,0-1.74,1.73A1.68,1.68,0,0,0,174.42,198.09Z" style="fill: rgb(255, 255, 255); transform-origin: 172.678px 198.001px;" id="elwhl7vlhqlgi" class="animable"></path><path d="M180.2,200.34v-3.27l-1.62,2.72h-.3l-1.62-2.7v3.25H176v-4.49h.53l1.87,3.15,1.85-3.15h.52v4.49Z" style="fill: rgb(255, 255, 255); transform-origin: 178.385px 198.095px;" id="elpv77s01ia4h" class="animable"></path></g></g><path d="M221.15,277.11c0,3.44-11.19,6.23-25,6.23s-25-2.79-25-6.23,11.19-6.22,25-6.22S221.15,273.67,221.15,277.11Z" style="fill: #5E0000; transform-origin: 196.15px 277.115px;" id="elxepcz3vvbai" class="animable"></path><g id="el0rn22s0zt1cl"><path d="M221.15,277.11c0,3.44-11.19,6.23-25,6.23s-25-2.79-25-6.23,11.19-6.22,25-6.22S221.15,273.67,221.15,277.11Z" style="opacity: 0.2; isolation: isolate; transform-origin: 196.15px 277.115px;" class="animable" id="elpkb3v7v5ht"></path></g><path d="M209.57,233.66h0a19,19,0,0,0-26.84,0h0a19,19,0,0,0,0,26.83l13.42,13.42,13.42-13.42A19,19,0,0,0,209.57,233.66Zm-6.94,19.89h0a9.16,9.16,0,0,1-13,0h0a9.15,9.15,0,0,1,0-13h0a9.16,9.16,0,0,1,13,0h0A9.15,9.15,0,0,1,202.63,253.55Z" style="fill: #5E0000; transform-origin: 196.15px 251.01px;" id="elruq45czox87" class="animable"></path><path d="M206.68,306.23H185.62a6.41,6.41,0,0,1-6.42-6.42h0a6.41,6.41,0,0,1,6.42-6.42h21.06a6.41,6.41,0,0,1,6.42,6.42h0A6.41,6.41,0,0,1,206.68,306.23Z" style="fill: #5E0000; transform-origin: 196.15px 299.81px;" id="elhuc6o7ifaes" class="animable"></path><path d="M187.73,302.69l.35-.73a3.36,3.36,0,0,0,2.16.76c1.14,0,1.63-.44,1.63-1,0-1.6-4-.59-4-3,0-1,.79-1.87,2.51-1.87a3.87,3.87,0,0,1,2.12.58l-.31.75a3.39,3.39,0,0,0-1.81-.54c-1.11,0-1.59.47-1.59,1.05,0,1.6,4,.6,4,3,0,1-.81,1.87-2.55,1.87A3.87,3.87,0,0,1,187.73,302.69Z" style="fill: rgb(255, 255, 255); transform-origin: 190.26px 300.205px;" id="ellkqi04j3bb" class="animable"></path><path d="M198.92,302.62v.82h-4.77v-6.57h4.64v.82h-3.7v2h3.3v.79h-3.3v2.12Z" style="fill: rgb(255, 255, 255); transform-origin: 196.535px 300.155px;" id="elo9xaarp9qll" class="animable"></path><path d="M201.74,297.69h-2.25v-.82h5.43v.82h-2.25v5.75h-.93Z" style="fill: rgb(255, 255, 255); transform-origin: 202.205px 300.155px;" id="el1590cf6prz5" class="animable"></path><g id="elrkulc0npva"><path d="M242,242.33V176.64a2.65,2.65,0,0,0-2.64-2.64H223.67v61.83a6.5,6.5,0,0,0,6.5,6.5Z" style="opacity: 0.2; isolation: isolate; transform-origin: 232.835px 208.165px;" class="animable" id="el8y37z3bcv0s"></path></g><g id="el1mhlli1fwg9"><g style="opacity: 0.4; isolation: isolate; transform-origin: 165.659px 208.001px;" class="animable" id="eld33h6lu0056"><path d="M162.82,206.41h-1.54v-.55H165v.55h-1.54v3.93h-.63Z" style="fill: rgb(255, 255, 255); transform-origin: 163.14px 208.1px;" id="elgh5fdd1g0ao" class="animable"></path><path d="M165.26,208.1a2.39,2.39,0,1,1,2.39,2.29A2.28,2.28,0,0,1,165.26,208.1Zm4.13,0a1.75,1.75,0,1,0-1.74,1.72A1.69,1.69,0,0,0,169.39,208.1Z" style="fill: rgb(255, 255, 255); transform-origin: 167.648px 208.001px;" id="eldv1jabrsihg" class="animable"></path></g></g><g id="elt2bj078cxm"><path d="M227.8,194.11H187.2a3.69,3.69,0,0,0-3.7,3.69h0a3.69,3.69,0,0,0,3.7,3.7h40.6a3.69,3.69,0,0,0,3.7-3.7h0A3.69,3.69,0,0,0,227.8,194.11Z" style="fill: rgb(255, 255, 255); opacity: 0.4; isolation: isolate; transform-origin: 207.5px 197.805px;" class="animable" id="el9ihquvgo2lu"></path></g><g id="elyzt5d68mseq"><path d="M227.8,204.12H187.2a3.69,3.69,0,0,0-3.7,3.69h0a3.7,3.7,0,0,0,3.7,3.7h40.6a3.7,3.7,0,0,0,3.7-3.7h0A3.69,3.69,0,0,0,227.8,204.12Z" style="fill: rgb(255, 255, 255); opacity: 0.4; isolation: isolate; transform-origin: 207.5px 207.815px;" class="animable" id="el0egxdgccgau8"></path></g></g><g id="freepik--Screen1--inject-143" class="animable" style="transform-origin: 275.508px 145.015px;"><path d="M321,72.64v145a2.13,2.13,0,0,1-2.1,2.39H232.17a2.14,2.14,0,0,1-2.17-2.19V72.44c0-1.07.79-2.44,1.86-2.44h21.68a1.75,1.75,0,0,1,1.4,1.19l.9,2a1.37,1.37,0,0,0,1.39.78h36.92c.61,0,1.16-.09,1.39-.66l.9-2.29a1.59,1.59,0,0,1,1.4-1h21.37C320.39,70,321,71.45,321,72.64Z" style="fill: #5E0000; transform-origin: 275.508px 145.015px;" id="el24x3ohi4urjh" class="animable"></path><g id="elrrpijinoogc"><path d="M321,72.64v145a2.13,2.13,0,0,1-2.1,2.39H232.17a2.14,2.14,0,0,1-2.17-2.19V72.44c0-1.07.79-2.44,1.86-2.44h21.68a1.75,1.75,0,0,1,1.4,1.19l.9,2a1.37,1.37,0,0,0,1.39.78h36.92c.61,0,1.16-.09,1.39-.66l.9-2.29a1.59,1.59,0,0,1,1.4-1h21.37C320.39,70,321,71.45,321,72.64Z" style="fill: rgb(255, 255, 255); opacity: 0.2; transform-origin: 275.508px 145.015px;" class="animable" id="elsjqysqh14s"></path></g><circle cx="275.11" cy="133.25" r="33.25" style="fill: #5E0000; transform-origin: 275.11px 133.25px;" id="elb88l6vzpwe" class="animable"></circle><g id="elg8cp5rkhcr"><path d="M308.5,133.25A33.25,33.25,0,1,1,275.25,100,33.19,33.19,0,0,1,308.5,133.25Z" style="fill: rgb(255, 255, 255); opacity: 0.4; isolation: isolate; transform-origin: 275.25px 133.25px;" class="animable" id="el37hd6ex5hgo"></path></g><polygon points="280.25 122.73 274.53 122.73 275.36 120.36 279.42 120.36 280.25 122.73" style="fill: #5E0000; transform-origin: 277.39px 121.545px;" id="ellribt2kunw" class="animable"></polygon><path d="M301.14,144H246.87l1.34-8.67a2.66,2.66,0,0,1,2.3-2.24l10.78-1.38,6.51-7.46,0,0a3.24,3.24,0,0,1,1.85-1.07,43.26,43.26,0,0,1,7.68-.49,47.1,47.1,0,0,1,7.52.48c1,.15,2.13.75,2.13,1.63h0s.07.07.08.1l3,6.33-.08.09h0l.63.42,8.25,1.42a1.7,1.7,0,0,1,1.43,1.45Z" style="fill: #5E0000; transform-origin: 274.005px 133.338px;" id="elvw8b7kwped" class="animable"></path><g id="ely57gh457gtq"><path d="M301.14,144H246.87l1.34-8.67a2.66,2.66,0,0,1,2.3-2.24l10.78-1.38,6.51-7.46,0,0a3.24,3.24,0,0,1,1.85-1.07,43.26,43.26,0,0,1,7.68-.49,47.1,47.1,0,0,1,7.52.48c1,.15,2.13.75,2.13,1.63h0s.07.07.08.1l3,6.33-.08.09h0l.63.42,8.25,1.42a1.7,1.7,0,0,1,1.43,1.45Z" style="opacity: 0.2; isolation: isolate; transform-origin: 274.005px 133.338px;" class="animable" id="el6bc4w603yvo"></path></g><path d="M262.09,144.24a4.68,4.68,0,1,1-4.67-4.68A4.67,4.67,0,0,1,262.09,144.24Z" style="fill: rgb(46, 53, 58); transform-origin: 257.41px 144.24px;" id="elnp7fwf8ncha" class="animable"></path><path d="M259.75,144.24a2.34,2.34,0,1,1-2.33-2.34A2.33,2.33,0,0,1,259.75,144.24Z" style="fill: #5E0000; transform-origin: 257.41px 144.24px;" id="elqc439divy2s" class="animable"></path><path d="M295.83,144.24a4.67,4.67,0,1,1-4.67-4.68A4.67,4.67,0,0,1,295.83,144.24Z" style="fill: rgb(46, 53, 58); transform-origin: 291.16px 144.23px;" id="elppox1f71cnd" class="animable"></path><path d="M293.5,144.24a2.34,2.34,0,1,1-2.34-2.34A2.33,2.33,0,0,1,293.5,144.24Z" style="fill: #5E0000; transform-origin: 291.16px 144.24px;" id="el32cnq17rdvv" class="animable"></path><rect x="246.13" y="141.9" width="6.01" height="2.7" rx="0.6" style="fill: #5E0000; transform-origin: 249.135px 143.25px;" id="elggvvszanzfn" class="animable"></rect><rect x="296.44" y="141.9" width="5.07" height="2.7" rx="0.6" style="fill: #5E0000; transform-origin: 298.975px 143.25px;" id="ellms5k8vzigf" class="animable"></rect><path d="M249.88,139c0,1-.37,1.85-.82,1.85s-.82-.83-.82-1.85.36-1.85.82-1.85S249.88,138,249.88,139Z" style="fill: #5E0000; transform-origin: 249.06px 139px;" id="el68bgn5ayh3s" class="animable"></path><polygon points="300.45 141.17 298.98 141.17 298.98 137.13 300.11 137.13 300.45 141.17" style="fill: #5E0000; transform-origin: 299.715px 139.15px;" id="elg18sj36q8yb" class="animable"></polygon><rect x="250.02" y="135.55" width="1.58" height="1.58" style="fill: #5E0000; transform-origin: 250.81px 136.34px;" id="el6joksipbrwb" class="animable"></rect><rect x="251.6" y="137.13" width="1.58" height="1.58" style="fill: #5E0000; transform-origin: 252.39px 137.92px;" id="el1l1b1g2idul" class="animable"></rect><rect x="253.18" y="135.55" width="1.58" height="1.58" style="fill: #5E0000; transform-origin: 253.97px 136.34px;" id="el2l3wcbx02bn" class="animable"></rect><rect x="254.75" y="137.13" width="1.58" height="1.58" style="fill: #5E0000; transform-origin: 255.54px 137.92px;" id="elqn6l6ypj2t" class="animable"></rect><rect x="256.33" y="135.55" width="1.58" height="1.58" style="fill: #5E0000; transform-origin: 257.12px 136.34px;" id="elvhvnb7ou5z9" class="animable"></rect><rect x="257.9" y="137.13" width="1.58" height="1.58" style="fill: #5E0000; transform-origin: 258.69px 137.92px;" id="elohcz2hvgjo" class="animable"></rect><rect x="259.48" y="135.55" width="1.58" height="1.58" style="fill: #5E0000; transform-origin: 260.27px 136.34px;" id="ely8j5j1qa02" class="animable"></rect><rect x="261.06" y="137.13" width="1.58" height="1.58" style="fill: #5E0000; transform-origin: 261.85px 137.92px;" id="eloa9h4h4lm7" class="animable"></rect><rect x="262.63" y="135.55" width="1.58" height="1.58" style="fill: #5E0000; transform-origin: 263.42px 136.34px;" id="eluf26l4wm74c" class="animable"></rect><rect x="264.21" y="137.13" width="1.58" height="1.58" style="fill: #5E0000; transform-origin: 265px 137.92px;" id="elv113iymvr1" class="animable"></rect><rect x="265.78" y="135.55" width="1.58" height="1.58" style="fill: #5E0000; transform-origin: 266.57px 136.34px;" id="elgdorngitx0l" class="animable"></rect><rect x="267.36" y="137.13" width="1.58" height="1.58" style="fill: #5E0000; transform-origin: 268.15px 137.92px;" id="el8mvs55lys7o" class="animable"></rect><rect x="268.94" y="135.55" width="1.58" height="1.58" style="fill: #5E0000; transform-origin: 269.73px 136.34px;" id="elepdzuk0kkq6" class="animable"></rect><rect x="270.51" y="137.13" width="1.58" height="1.58" style="fill: #5E0000; transform-origin: 271.3px 137.92px;" id="elrmk1vw6byfk" class="animable"></rect><rect x="272.09" y="135.55" width="1.58" height="1.58" style="fill: #5E0000; transform-origin: 272.88px 136.34px;" id="el6vuuf5ylpyt" class="animable"></rect><rect x="273.66" y="137.13" width="1.58" height="1.58" style="fill: #5E0000; transform-origin: 274.45px 137.92px;" id="elw0ms1y66diq" class="animable"></rect><rect x="275.24" y="135.55" width="1.58" height="1.58" style="fill: #5E0000; transform-origin: 276.03px 136.34px;" id="elb4sbd2tvfmd" class="animable"></rect><rect x="276.82" y="137.13" width="1.58" height="1.58" style="fill: #5E0000; transform-origin: 277.61px 137.92px;" id="elzcyv7b17ija" class="animable"></rect><rect x="278.39" y="135.55" width="1.58" height="1.58" style="fill: #5E0000; transform-origin: 279.18px 136.34px;" id="elfy9p6ha8bau" class="animable"></rect><rect x="279.97" y="137.13" width="1.58" height="1.58" style="fill: #5E0000; transform-origin: 280.76px 137.92px;" id="el1e7fow3qo26" class="animable"></rect><rect x="281.54" y="135.55" width="1.58" height="1.58" style="fill: #5E0000; transform-origin: 282.33px 136.34px;" id="elcm6vj2mqul" class="animable"></rect><rect x="283.12" y="137.13" width="1.58" height="1.58" style="fill: #5E0000; transform-origin: 283.91px 137.92px;" id="elbidkphi9lmk" class="animable"></rect><rect x="284.7" y="135.55" width="1.58" height="1.58" style="fill: #5E0000; transform-origin: 285.49px 136.34px;" id="elccusqdk3uea" class="animable"></rect><rect x="286.27" y="137.13" width="1.58" height="1.58" style="fill: #5E0000; transform-origin: 287.06px 137.92px;" id="elxl3jjzrzc3" class="animable"></rect><rect x="287.85" y="135.55" width="1.58" height="1.58" style="fill: #5E0000; transform-origin: 288.64px 136.34px;" id="el3utnulc5caf" class="animable"></rect><rect x="289.42" y="137.13" width="1.58" height="1.58" style="fill: #5E0000; transform-origin: 290.21px 137.92px;" id="elum4rupeld0p" class="animable"></rect><rect x="291" y="135.55" width="1.58" height="1.58" style="fill: #5E0000; transform-origin: 291.79px 136.34px;" id="elzjb920vy3f" class="animable"></rect><rect x="292.58" y="137.13" width="1.58" height="1.58" style="fill: #5E0000; transform-origin: 293.37px 137.92px;" id="elfpfwdp3b9v8" class="animable"></rect><rect x="294.15" y="135.55" width="1.58" height="1.58" style="fill: #5E0000; transform-origin: 294.94px 136.34px;" id="el10s42v453nx" class="animable"></rect><rect x="295.73" y="137.13" width="1.58" height="1.58" style="fill: #5E0000; transform-origin: 296.52px 137.92px;" id="elz9f99m3t0w8" class="animable"></rect><rect x="297.31" y="135.55" width="1.58" height="1.58" style="fill: #5E0000; transform-origin: 298.1px 136.34px;" id="el81pc0sbc0j3" class="animable"></rect><path d="M278,130.89v-6.58l5.42.1a1.69,1.69,0,0,1,1.52,1l2.47,5.48Z" style="fill: #5E0000; transform-origin: 282.705px 127.6px;" id="el21aswlcts78" class="animable"></path><path d="M264.89,130.89l4.51-5.54a2.77,2.77,0,0,1,2.17-1h4.76v6.58Z" style="fill: #5E0000; transform-origin: 270.61px 127.64px;" id="el558s6wnwuxf" class="animable"></path><path d="M268.93,124.31l-5.51,6.9s0,.23-2.13.51l6.51-7.47,0,0Z" style="fill: #5E0000; transform-origin: 265.11px 127.985px;" id="elxatopl6jgy" class="animable"></path><path d="M290.41,131.21l-1.45-.32-3.28-6.26a8.42,8.42,0,0,1,1.32.15h0s.07.07.08.1Z" style="fill: #5E0000; transform-origin: 288.045px 127.92px;" id="eladh3f4er9ed" class="animable"></path><g id="el7xq8kwyy3de"><path d="M249.88,139c0,1-.37,1.85-.82,1.85s-.82-.83-.82-1.85.36-1.85.82-1.85S249.88,138,249.88,139Z" style="fill: rgb(255, 255, 255); opacity: 0.2; transform-origin: 249.06px 139px;" class="animable" id="elcwia9e4u4bl"></path></g><g id="el7klfihtss58"><polygon points="300.45 141.17 298.98 141.17 298.98 137.13 300.11 137.13 300.45 141.17" style="fill: rgb(255, 255, 255); opacity: 0.2; transform-origin: 299.715px 139.15px;" class="animable" id="elqnyr60iwvm"></polygon></g><path d="M304.59,149c-5.6,10-16.64,17.59-29.34,17.59S251.51,159,245.91,149Z" style="fill: #5E0000; transform-origin: 275.25px 157.795px;" id="elcobo393hxc" class="animable"></path><path d="M281.67,115h-7.44a1.31,1.31,0,0,1-1.31-1.31h0a1.31,1.31,0,0,1,1.31-1.31h7.44a1.31,1.31,0,0,1,1.31,1.31h0A1.31,1.31,0,0,1,281.67,115Z" style="fill: #5E0000; transform-origin: 277.95px 113.69px;" id="ele6p8ij8uq3h" class="animable"></path><path d="M279.67,112.38a2.57,2.57,0,1,1-2.57-2.57A2.57,2.57,0,0,1,279.67,112.38Z" style="fill: #5E0000; transform-origin: 277.1px 112.38px;" id="elpm182j0lg7" class="animable"></path><circle cx="279.4" cy="112.43" r="1.43" style="fill: #5E0000; transform-origin: 279.4px 112.43px;" id="el207jx8qwu5u" class="animable"></circle><path d="M299.47,125.33H293.9a1,1,0,0,1-1-1h0a1,1,0,0,1,1-1h5.57a1,1,0,0,1,1,1h0A1,1,0,0,1,299.47,125.33Z" style="fill: #5E0000; transform-origin: 296.685px 124.33px;" id="eltjfh4mxe1f" class="animable"></path><circle cx="296.05" cy="123.36" r="1.92" style="fill: #5E0000; transform-origin: 296.05px 123.36px;" id="elzfsypdnv1o9" class="animable"></circle><circle cx="297.77" cy="123.4" r="1.07" style="fill: #5E0000; transform-origin: 297.77px 123.4px;" id="el0kwrggx0jrx" class="animable"></circle><path d="M256.45,124.93H249a1.31,1.31,0,0,1-1.31-1.31h0A1.32,1.32,0,0,1,249,122.3h7.45a1.32,1.32,0,0,1,1.31,1.32h0A1.31,1.31,0,0,1,256.45,124.93Z" style="fill: #5E0000; transform-origin: 252.725px 123.615px;" id="elb0gam1hxp6" class="animable"></path><circle cx="251.88" cy="122.3" r="2.57" style="fill: #5E0000; transform-origin: 251.88px 122.3px;" id="elfuvbwihxkct" class="animable"></circle><circle cx="254.18" cy="122.35" r="1.43" style="fill: #5E0000; transform-origin: 254.18px 122.35px;" id="el1qt91yt22ca" class="animable"></circle><path d="M293.58,196.32H256.51a6.42,6.42,0,0,1-6.42-6.42h0a6.42,6.42,0,0,1,6.42-6.43h37.07A6.42,6.42,0,0,1,300,189.9h0A6.42,6.42,0,0,1,293.58,196.32Z" style="fill: #5E0000; transform-origin: 275.045px 189.895px;" id="el6oz8idniqsq" class="animable"></path><path d="M262.29,192.77l.35-.73a3.39,3.39,0,0,0,2.17.76c1.13,0,1.62-.44,1.62-1,0-1.61-4-.59-4-3,0-1,.79-1.88,2.52-1.88a3.94,3.94,0,0,1,2.11.58l-.31.75a3.46,3.46,0,0,0-1.8-.53c-1.12,0-1.6.47-1.6,1,0,1.61,4,.6,4,3,0,1-.81,1.87-2.54,1.87A3.9,3.9,0,0,1,262.29,192.77Z" style="fill: rgb(255, 255, 255); transform-origin: 264.82px 190.256px;" id="elbpib7w3x04" class="animable"></path><path d="M269.93,187.77h-2.26V187h5.44v.81h-2.26v5.76h-.92Z" style="fill: rgb(255, 255, 255); transform-origin: 270.39px 190.285px;" id="elv2rzo9hpowk" class="animable"></path><path d="M278,191.88h-3.49l-.72,1.65h-1l3-6.57h.93l3,6.57h-1Zm-.33-.75-1.41-3.22-1.42,3.22Z" style="fill: rgb(255, 255, 255); transform-origin: 276.255px 190.245px;" id="el9602c1ddvs9" class="animable"></path><path d="M285.05,193.53l-1.41-2-.42,0H281.6v2h-.94V187h2.56c1.71,0,2.74.86,2.74,2.29a2.07,2.07,0,0,1-1.44,2.07l1.56,2.21Zm0-4.28c0-.94-.63-1.48-1.83-1.48h-1.6v3h1.6C284.4,190.73,285,190.18,285,189.25Z" style="fill: rgb(255, 255, 255); transform-origin: 283.37px 190.285px;" id="ell8odrbn7v4" class="animable"></path><path d="M288.69,187.77h-2.25V187h5.43v.81h-2.25v5.76h-.93Z" style="fill: rgb(255, 255, 255); transform-origin: 289.155px 190.285px;" id="elvy7kjbavrx" class="animable"></path></g><g id="freepik--Character--inject-143" class="animable" style="transform-origin: 335.938px 282.148px;"><path d="M396,258.17c-.19,4-26.71,10.33-30.12,8.33s0-29,0-29l20.43-4.17v0C386.69,234.1,396.21,254.24,396,258.17Z" style="fill: rgb(46, 53, 58); transform-origin: 380.184px 250.106px;" id="elqn1z8gr0o9" class="animable"></path><path d="M390.5,236.5c-5.42,3.4-12.35-2.47-17.47-8.43a82.44,82.44,0,0,1-7.13-9.74l5.92-8.76,8.18,8.57h0l1.5,1.31-1-1.8-6.34-10L380.94,188l0,0S400.33,230.33,390.5,236.5Z" style="fill: #5E0000; transform-origin: 379.59px 212.751px;" id="el4p8oa7mzvyv" class="animable"></path><g id="el56j4swbxptv"><path d="M371.82,209.57l8.18,8.57h0c-1,4.53-3.45,8.24-7.18,9.92a82.44,82.44,0,0,1-7.13-9.74Z" style="opacity: 0.2; isolation: isolate; transform-origin: 372.845px 218.815px;" class="animable" id="elpnypnbpvte9"></path></g><g id="el0k5xvpeyjux"><path d="M380.56,217.66l-6.39-10L381,188v0S384,205.52,380.56,217.66Z" style="opacity: 0.2; isolation: isolate; transform-origin: 378.191px 202.83px;" class="animable" id="elqjvdyveqdl"></path></g><path d="M293.78,196.88l-9.68-2s-3.38-3.25-4.6-4.22-5.7-2.5-6.46-2.09,3.42,2.36,3.42,2.36-2,4.3-1.61,5.61,6.3,3,6.84,2.78l9.78,3.74Z" style="fill: rgb(235, 179, 118); transform-origin: 283.364px 195.781px;" id="el8ba2vz1iw2p" class="animable"></path><polygon points="290.75 195.44 286.21 194.76 284.15 200.94 287.94 202.5 290.75 195.44" style="fill: #5E0000; transform-origin: 287.45px 198.63px;" id="elm0ihd8o6f4" class="animable"></polygon><g id="el9xulut1ydk"><polygon points="290.75 195.44 286.21 194.76 284.15 200.94 287.94 202.5 290.75 195.44" style="fill: rgb(255, 255, 255); opacity: 0.6; isolation: isolate; transform-origin: 287.45px 198.63px;" class="animable" id="el31nyxcy0op4"></polygon></g><polygon points="397.33 404.15 390.67 405.32 387.94 396.24 385.45 387.9 393.13 385.22 395.36 395.24 397.33 404.15" style="fill: rgb(228, 137, 123); transform-origin: 391.39px 395.27px;" id="elo60h7mz9ytk" class="animable"></polygon><g id="elz34frcc901"><polygon points="395.39 395.44 387.97 396.42 385.46 388 393.13 385.27 395.39 395.44" style="opacity: 0.2; isolation: isolate; transform-origin: 390.425px 390.845px;" class="animable" id="elrj765az50mj"></polygon></g><polygon points="352.86 407 346.1 407 344.99 397.58 343.98 388.94 352.01 387.63 352.47 397.89 352.86 407" style="fill: rgb(228, 137, 123); transform-origin: 348.42px 397.315px;" id="el2zzp3yffazd" class="animable"></polygon><g id="elff94qbm96x5"><polygon points="352.47 398.1 344.99 397.77 343.98 389.03 352.01 387.68 352.47 398.1" style="opacity: 0.2; isolation: isolate; transform-origin: 348.225px 392.89px;" class="animable" id="elgi0rfaxpbj6"></polygon></g><path d="M396,390.16l-10.95,1.93c-11.05-27.53-18.91-50.51-24.46-69.58-3-10.29-5.32-19.44-7.11-27.56l.5,30V393H342.88C315.83,264,335,234.52,335,234.52L367.36,229a146.33,146.33,0,0,1,2.71,18.11l1.46,10.7,12.65,65.32Z" style="fill: #5E0000; transform-origin: 362.205px 311px;" id="eloh30o8h5a0h" class="animable"></path><g id="elj80y7ofrom9"><g style="opacity: 0.5; isolation: isolate; transform-origin: 362.205px 311px;" class="animable" id="elfnfmcvdlvwj"><path d="M396,390.16l-10.95,1.93c-10.09-25.15-17.53-46.5-23-64.54l-1.5-5c-2.71-9.34-4.6-17.74-6.6-25.28v0a10.54,10.54,0,0,0-.51-2.26l.51,30V393H342.88c-16.52-78.79-15.8-120.45-12.74-140.95,2-13.07,4.86-17.53,4.86-17.53L367.36,229a146.33,146.33,0,0,1,2.71,18.11l.44,3.22,1,7.48,12.65,65.32Z" style="fill: rgb(255, 255, 255); transform-origin: 362.205px 311px;" id="eld8xq8vcw1ol" class="animable"></path></g></g><polygon points="383.35 390.74 396.94 386.23 396.75 392.01 385.52 395.59 383.35 390.74" style="fill: #5E0000; transform-origin: 390.145px 390.91px;" id="elpl16kshnno" class="animable"></polygon><g id="elhnp34t3tucs"><polygon points="383.35 390.74 396.94 386.23 396.75 392.01 385.52 395.59 383.35 390.74" style="fill: rgb(255, 255, 255); opacity: 0.6; isolation: isolate; transform-origin: 390.145px 390.91px;" class="animable" id="elmkx0t5szd3s"></polygon></g><polygon points="341.43 391.37 355.59 389.29 354.4 394.95 342.72 396.52 341.43 391.37" style="fill: #5E0000; transform-origin: 348.51px 392.905px;" id="elcz8zb2nails" class="animable"></polygon><g id="eloapv3zv8sv"><polygon points="341.43 391.37 355.59 389.29 354.4 394.95 342.72 396.52 341.43 391.37" style="fill: rgb(255, 255, 255); opacity: 0.6; isolation: isolate; transform-origin: 348.51px 392.905px;" class="animable" id="elqj3tlgezlla"></polygon></g><g id="elkihuk11pn2m"><path d="M362.1,327.55l-1.5-5c-2.71-9.34-4.6-17.74-6.6-25.28v0l-1.15-13.88s6.91-15.25,4.32-26c.24.61,4.81,12.3,3,24A339,339,0,0,0,362.1,327.55Z" style="opacity: 0.2; isolation: isolate; transform-origin: 357.475px 292.47px;" class="animable" id="el4xlrnq9qzcb"></path></g><g id="elr36j1qof22i"><path d="M370.51,250.32l-40.37,1.73c2-13.07,4.86-17.53,4.86-17.53L367.36,229a146.33,146.33,0,0,1,2.71,18.11Z" style="opacity: 0.2; isolation: isolate; transform-origin: 350.325px 240.525px;" class="animable" id="ele0rzues655j"></path></g><path d="M366.1,173.35a1.57,1.57,0,0,1-.26.19,11.92,11.92,0,0,1-4.18,2.05c-4.42,1-7.44.41-9.41-1.59h0c-2.76-3-3.45-8.31-3.06-14.73a24.07,24.07,0,0,1,1.4-7.48s0-.1,0-.12.07-.19.11-.27a8.75,8.75,0,0,1,6.43-5.34,17.77,17.77,0,0,1,3.79-.42C373.43,145.51,375.68,166.21,366.1,173.35Z" style="fill: rgb(235, 179, 118); transform-origin: 360.558px 160.853px;" id="elarb0rche1cg" class="animable"></path><g id="eln7vm24hke19"><path d="M365.84,173.54a11.61,11.61,0,0,1-4.18,1.87c-4.42,1-7.44.27-9.41-1.76a12.46,12.46,0,0,0,7.93-.65C362,172.18,364,172.6,365.84,173.54Z" style="opacity: 0.2; isolation: isolate; transform-origin: 359.045px 174.209px;" class="animable" id="elg980vkixdng"></path></g><path d="M367.11,184.83c.77,3.56-3.84,5-3.84,5-7.54-3.22-8.94-7.23-8.94-7.23,6.29-3.28,4.47-12.56,4.47-12.56l1.28.63,9,1.76s-2.49,4.78-2.82,5.87v0C364.54,184,367.11,184.83,367.11,184.83Z" style="fill: rgb(235, 179, 118); transform-origin: 361.705px 179.935px;" id="elrzpqfwkcn7n" class="animable"></path><path d="M350.57,151.7s-.68,8.77,7.62,12.54c0,0,3.57,9.1,8.82,9.23,7.16.18,13.47-10,11-20.39C374.78,139.63,354.4,138.53,350.57,151.7Z" style="fill: rgb(46, 53, 58); transform-origin: 364.556px 157.929px;" id="elrkf2z5v2dzg" class="animable"></path><path d="M364.56,141.5s-13.62-3.75-15.48,5.75c-2.58,13.18,7.84,14.59,7.84,14.59s1.13,11-2.91,14.95c0,0,9.32,6.53,24.54,1.5,9.95-3.29.62-18.79.62-18.79S384.67,139.17,364.56,141.5Z" style="fill: rgb(46, 53, 58); transform-origin: 365.904px 160.482px;" id="eluhtpozt70i" class="animable"></path><path d="M354,161.72c0-1.37,1.1-3.67,3.22-3.35s3.42,5.74-2,6.95C354.45,165.5,354,164.57,354,161.72Z" style="fill: rgb(235, 179, 118); transform-origin: 356.527px 161.841px;" id="elypzlq6p3s3" class="animable"></path><path d="M355.4,142.39s-6.73-1.72-8.57,6.61,4.29,11.48,4.29,11.48" style="fill: none; stroke: rgb(46, 53, 58); stroke-linecap: round; stroke-linejoin: round; stroke-width: 0.5px; transform-origin: 350.943px 151.362px;" id="elbs4oglrvybe" class="animable"></path><path d="M350.56,181.6s7.29-3.93,15.28-1.18S372,188.5,372,188.5Z" style="fill: #5E0000; transform-origin: 361.37px 183.972px;" id="elbngtc9i4ay" class="animable"></path><g id="elzlrk6ufutg"><path d="M350.56,181.6s7.29-3.93,15.28-1.18S372,188.5,372,188.5Z" style="fill: rgb(255, 255, 255); opacity: 0.5; isolation: isolate; transform-origin: 361.37px 183.972px;" class="animable" id="el683zmwpwbe6"></path></g><path d="M381,188s-6.91-2.71-13.1-4.41A104.33,104.33,0,0,0,353.2,181a97.31,97.31,0,0,0-14.08-.56c.14,2.26.23,4.4.32,6.41.12,2.65.2,5.11.26,7.39.11,4.28.1,7.94,0,11.2a109.64,109.64,0,0,1-2.56,21.07l-7,17L372,248.83l-2.38-16.67h0c7-20.22,9.92-30.87,11-36.91C381.92,188.52,381,188,381,188Z" style="fill: #5E0000; transform-origin: 355.728px 214.609px;" id="elw6aws7189x" class="animable"></path><path d="M339.12,180.47a23.16,23.16,0,0,1,.64,17S317,213.75,310.5,212.5s-24-9.33-24-9.33l2.75-8.21s20.25,4,22,4.79S339.12,180.47,339.12,180.47Z" style="fill: #5E0000; transform-origin: 313.787px 196.519px;" id="el75g25edxubt" class="animable"></path><path d="M376.4,186.3s9.77,29.89,12.1,54.63l-3.19-.41s-4.55-40.65-10.4-54.37Z" style="fill: rgb(46, 53, 58); transform-origin: 381.705px 213.54px;" id="elqp1xa766rbq" class="animable"></path><g id="el8off0w9a71t"><path d="M376.4,186.3s9.77,29.89,12.1,54.63l-3.19-.41s-4.55-40.65-10.4-54.37Z" style="opacity: 0.2; isolation: isolate; transform-origin: 381.705px 213.54px;" class="animable" id="elwwhvydpdep"></path></g><path d="M386.34,233.35v0L373.17,236l4.33,29.65c8.49-1.75,18.4-5.06,18.52-7.5C396.21,254.24,386.69,234.1,386.34,233.35Z" style="fill: rgb(46, 53, 58); transform-origin: 384.596px 249.5px;" id="el4xp52ohmyi6" class="animable"></path><g id="el6mrg8t39dq6"><path d="M396,258.17c-2,1.43-5.66,3.83-9,.66s-.67-25.5-.67-25.5v0C386.69,234.1,396.21,254.24,396,258.17Z" style="fill: rgb(255, 255, 255); opacity: 0.1; isolation: isolate; transform-origin: 390.661px 246.862px;" class="animable" id="elukxjvwcql8m"></path></g><path d="M380.21,239s-2.09-46.61-6.65-53.43l1.35.58s6.41,7.35,8.23,52.85Z" style="fill: rgb(46, 53, 58); transform-origin: 378.35px 212.285px;" id="el8d0t20u6pd" class="animable"></path><path d="M335.6,421.73a10.84,10.84,0,0,1,3.42-1.86h0s3.72-3.69,5.51-14.8l4.87-1.26a4.15,4.15,0,0,1,4.43,1.72,2.7,2.7,0,0,1,.31.64,29.61,29.61,0,0,1,.52,3.61c.49,3.77.07,12.21.07,12.21h-.88l-.35-7.66c-.13-2.6-2.12.44-2.69,3.25s-1.78,5.77-7.48,5.92C336.68,423.62,333.92,423.36,335.6,421.73Z" style="fill: rgb(46, 53, 58); transform-origin: 345.008px 413.609px;" id="ell7k67wwxs4" class="animable"></path><path d="M354,405.62c.32-2.6.42-7.12.42-7.12l-10.82,1.2s1.31,5.14.23,9C349.28,407.27,354,405.62,354,405.62Z" style="fill: rgb(46, 53, 58); transform-origin: 349.01px 403.6px;" id="elkeanl6xw23" class="animable"></path><path d="M379.63,421.73a10.73,10.73,0,0,1,3.42-1.86h0s3.72-3.69,5.51-14.8l4.87-1.26a4.15,4.15,0,0,1,4.43,1.72,2.7,2.7,0,0,1,.31.64,29.61,29.61,0,0,1,.52,3.61c.49,3.77.07,12.21.07,12.21h-.88l-.35-7.66c-.13-2.6-2.12.44-2.69,3.25s-1.78,5.77-7.48,5.92C380.71,423.62,378,423.36,379.63,421.73Z" style="fill: rgb(46, 53, 58); transform-origin: 389.048px 413.609px;" id="elcnrjof0duj" class="animable"></path><path d="M398,405.62c.32-2.6.42-7.12.42-7.12l-10.82,1.2s1.31,5.14.23,9C393.31,407.27,398,405.62,398,405.62Z" style="fill: rgb(46, 53, 58); transform-origin: 393.01px 403.6px;" id="elqb07r41nzse" class="animable"></path></g><defs>     <filter id="active" height="200%">         <feMorphology in="SourceAlpha" result="DILATED" operator="dilate" radius="2"></feMorphology>                <feFlood flood-color="#32DFEC" flood-opacity="1" result="PINK"></feFlood>        <feComposite in="PINK" in2="DILATED" operator="in" result="OUTLINE"></feComposite>        <feMerge>            <feMergeNode in="OUTLINE"></feMergeNode>            <feMergeNode in="SourceGraphic"></feMergeNode>        </feMerge>    </filter>    <filter id="hover" height="200%">        <feMorphology in="SourceAlpha" result="DILATED" operator="dilate" radius="2"></feMorphology>                <feFlood flood-color="#ff0000" flood-opacity="0.5" result="PINK"></feFlood>        <feComposite in="PINK" in2="DILATED" operator="in" result="OUTLINE"></feComposite>        <feMerge>            <feMergeNode in="OUTLINE"></feMergeNode>            <feMergeNode in="SourceGraphic"></feMergeNode>        </feMerge>            <feColorMatrix type="matrix" values="0   0   0   0   0                0   1   0   0   0                0   0   0   0   0                0   0   0   1   0 "></feColorMatrix>    </filter></defs></svg>